<svg width="1440" height="565" viewBox="0 0 1440 565" fill="none" xmlns="http://www.w3.org/2000/svg">
<path d="M199.178 338.139C199.178 335.914 200.982 334.11 203.207 334.11C205.431 334.11 207.235 335.914 207.235 338.139C207.235 340.363 205.431 342.167 203.207 342.167C201.007 342.167 199.178 340.363 199.178 338.139Z" fill="url(#paint0_linear)"/>
<path d="M203.899 246.82H202.564V335.791H203.899V246.82Z" fill="url(#paint1_linear)"/>
<path d="M16.4417 228.581C16.4417 226.357 18.2458 224.552 20.4701 224.552C22.6944 224.552 24.4985 226.357 24.4985 228.581C24.4985 230.805 22.6944 232.609 20.4701 232.609C18.2458 232.609 16.4417 230.805 16.4417 228.581Z" fill="url(#paint2_linear)"/>
<path d="M21.1374 137.262H19.8028V226.258H21.1374V137.262Z" fill="url(#paint3_linear)"/>
<path d="M66.5126 133.901C66.5126 131.677 68.3167 129.873 70.541 129.873C72.7653 129.873 74.5694 131.677 74.5694 133.901C74.5694 136.125 72.7653 137.929 70.541 137.929C68.3167 137.929 66.5126 136.125 66.5126 133.901Z" fill="url(#paint4_linear)"/>
<path d="M71.2329 42.5822H69.8984V131.553H71.2329V42.5822Z" fill="url(#paint5_linear)"/>
<path d="M106.747 154.34C106.747 152.115 108.551 150.311 110.776 150.311C113 150.311 114.804 152.115 114.804 154.34C114.804 156.564 113 158.368 110.776 158.368C108.576 158.393 106.747 156.589 106.747 154.34Z" fill="url(#paint6_linear)"/>
<path d="M111.468 63.0455H110.133V152.041H111.468V63.0455Z" fill="url(#paint7_linear)"/>
<path d="M172.388 384.082C172.388 381.858 174.192 380.054 176.416 380.054C178.641 380.054 180.445 381.858 180.445 384.082C180.445 386.307 178.641 388.111 176.416 388.111C174.192 388.111 172.388 386.307 172.388 384.082Z" fill="url(#paint8_linear)"/>
<path d="M177.108 292.764H175.774V381.735H177.108V292.764Z" fill="url(#paint9_linear)"/>
<path d="M234.742 124.954C234.742 122.73 236.546 120.926 238.77 120.926C240.994 120.926 242.799 122.73 242.799 124.954C242.799 127.179 240.994 128.983 238.77 128.983C236.546 128.983 234.742 127.179 234.742 124.954Z" fill="url(#paint10_linear)"/>
<path d="M239.438 33.6603H238.103V122.631H239.438V33.6603Z" fill="url(#paint11_linear)"/>
<path d="M123.553 121C123.553 118.776 125.357 116.972 127.581 116.972C129.806 116.972 131.61 118.776 131.61 121C131.61 123.224 129.806 125.029 127.581 125.029C125.357 125.029 123.553 123.224 123.553 121Z" fill="url(#paint12_linear)"/>
<path d="M128.273 74.1916H126.939V118.677H128.273V74.1916Z" fill="url(#paint13_linear)"/>
<path d="M275.495 344.663C275.495 342.439 277.3 340.635 279.524 340.635C281.748 340.635 283.552 342.439 283.552 344.663C283.552 346.888 281.748 348.692 279.524 348.692C277.324 348.692 275.495 346.888 275.495 344.663Z" fill="url(#paint14_linear)"/>
<path d="M280.216 297.83H278.881V342.315H280.216V297.83Z" fill="url(#paint15_linear)"/>
<path d="M43.7261 108.94C43.7261 106.715 45.5302 104.911 47.7545 104.911C49.9787 104.911 51.7829 106.715 51.7829 108.94C51.7829 111.164 49.9787 112.968 47.7545 112.968C45.5302 112.968 43.7261 111.164 43.7261 108.94Z" fill="url(#paint16_linear)"/>
<path d="M48.4465 62.1064H47.1119V106.592H48.4465V62.1064Z" fill="url(#paint17_linear)"/>
<path d="M173.97 47.3026C173.97 45.0783 175.774 43.2742 177.998 43.2742C180.222 43.2742 182.027 45.0783 182.027 47.3026C182.027 49.5269 180.222 51.331 177.998 51.331C175.799 51.3557 173.97 49.5269 173.97 47.3026Z" fill="url(#paint18_linear)"/>
<path d="M178.69 0.493988H177.356V44.9795H178.69V0.493988Z" fill="url(#paint19_linear)"/>
<path d="M117.918 372.862C117.918 370.638 119.722 368.834 121.946 368.834C124.171 368.834 125.975 370.638 125.975 372.862C125.975 375.086 124.171 376.89 121.946 376.89C119.722 376.89 117.918 375.086 117.918 372.862Z" fill="url(#paint20_linear)"/>
<path d="M122.614 281.543H121.279V370.539H122.614V281.543Z" fill="url(#paint21_linear)"/>
<path d="M233.852 325.633C233.852 323.409 235.656 321.605 237.88 321.605C240.105 321.605 241.909 323.409 241.909 325.633C241.909 327.858 240.105 329.662 237.88 329.662C235.656 329.686 233.852 327.882 233.852 325.633Z" fill="url(#paint22_linear)"/>
<path d="M238.548 234.339H237.213V323.335H238.548V234.339Z" fill="url(#paint23_linear)"/>
<path d="M39.6977 549.815C39.6977 547.591 41.5018 545.787 43.7261 545.787C45.9504 545.787 47.7545 547.591 47.7545 549.815C47.7545 552.04 45.9504 553.844 43.7261 553.844C41.5018 553.869 39.6977 552.04 39.6977 549.815Z" fill="url(#paint24_linear)"/>
<path d="M44.3934 240.468H43.0588V547.492H44.3934V240.468Z" fill="url(#paint25_linear)"/>
<path d="M210.522 374.024C210.522 371.8 212.326 369.995 214.55 369.995C216.775 369.995 218.579 371.8 218.579 374.024C218.579 376.248 216.775 378.052 214.55 378.052C212.326 378.052 210.522 376.248 210.522 374.024Z" fill="url(#paint26_linear)"/>
<path d="M215.218 64.6766H213.883V371.701H215.218V64.6766Z" fill="url(#paint27_linear)"/>
<path d="M102.002 464.008C102.002 461.784 103.806 459.98 106.03 459.98C108.255 459.98 110.059 461.784 110.059 464.008C110.059 466.232 108.255 468.036 106.03 468.036C103.806 468.061 102.002 466.232 102.002 464.008Z" fill="url(#paint28_linear)"/>
<path d="M106.723 154.686H105.388V461.71H106.723V154.686Z" fill="url(#paint29_linear)"/>
<path d="M187.291 225.862C187.291 223.638 189.095 221.834 191.319 221.834C193.543 221.834 195.347 223.638 195.347 225.862C195.347 228.087 193.543 229.891 191.319 229.891C189.095 229.916 187.291 228.111 187.291 225.862Z" fill="url(#paint30_linear)"/>
<path d="M192.011 53.6788H190.676V223.539H192.011V53.6788Z" fill="url(#paint31_linear)"/>
<path d="M8.01416 316.316C8.01416 314.092 9.8183 312.288 12.0426 312.288C14.2668 312.288 16.071 314.092 16.071 316.316C16.071 318.54 14.2668 320.345 12.0426 320.345C9.8183 320.345 8.01416 318.54 8.01416 316.316Z" fill="url(#paint32_linear)"/>
<path d="M12.7345 144.133H11.4V313.993H12.7345V144.133Z" fill="url(#paint33_linear)"/>
<path d="M1330.77 380.722C1330.77 378.497 1332.58 376.693 1334.8 376.693C1337.03 376.693 1338.83 378.497 1338.83 380.722C1338.83 382.946 1337.03 384.75 1334.8 384.75C1332.58 384.775 1330.77 382.946 1330.77 380.722Z" fill="url(#paint34_linear)"/>
<path d="M1335.47 316.366H1334.14V378.423H1335.47V316.366Z" fill="url(#paint35_linear)"/>
<path d="M1226.85 290.614C1226.85 288.389 1228.66 286.585 1230.88 286.585C1233.1 286.585 1234.91 288.389 1234.91 290.614C1234.91 292.838 1233.1 294.642 1230.88 294.642C1228.66 294.642 1226.85 292.838 1226.85 290.614Z" fill="url(#paint36_linear)"/>
<path d="M1231.55 127.673H1230.21V288.291H1231.55V127.673Z" fill="url(#paint37_linear)"/>
<path d="M1180.91 151.745C1180.91 149.521 1182.71 147.717 1184.94 147.717C1187.16 147.717 1188.96 149.521 1188.96 151.745C1188.96 153.969 1187.16 155.773 1184.94 155.773C1182.74 155.798 1180.91 153.994 1180.91 151.745Z" fill="url(#paint38_linear)"/>
<path d="M1185.63 60.4508H1184.29V149.446H1185.63V60.4508Z" fill="url(#paint39_linear)"/>
<path d="M1305.64 221.884C1305.64 219.659 1307.44 217.855 1309.67 217.855C1311.89 217.855 1313.7 219.659 1313.7 221.884C1313.7 224.108 1311.89 225.912 1309.67 225.912C1307.44 225.937 1305.64 224.108 1305.64 221.884Z" fill="url(#paint40_linear)"/>
<path d="M1310.34 130.59H1309V219.585H1310.34V130.59Z" fill="url(#paint41_linear)"/>
<path d="M1433.17 228.903C1433.17 226.678 1434.97 224.874 1437.19 224.874C1439.42 224.874 1441.22 226.678 1441.22 228.903C1441.22 231.127 1439.42 232.931 1437.19 232.931C1434.97 232.931 1433.17 231.127 1433.17 228.903Z" fill="url(#paint42_linear)"/>
<path d="M1437.89 137.608H1436.55V226.604H1437.89V137.608Z" fill="url(#paint43_linear)"/>
<path d="M1293.8 296.273C1293.8 294.049 1295.61 292.245 1297.83 292.245C1300.06 292.245 1301.86 294.049 1301.86 296.273C1301.86 298.498 1300.06 300.302 1297.83 300.302C1295.61 300.326 1293.8 298.498 1293.8 296.273Z" fill="url(#paint44_linear)"/>
<path d="M1298.52 127.055H1297.19V293.95H1298.52V127.055Z" fill="url(#paint45_linear)"/>
<path d="M1317.26 265.677C1317.26 263.453 1319.06 261.649 1321.28 261.649C1323.51 261.649 1325.31 263.453 1325.31 265.677C1325.31 267.901 1323.51 269.706 1321.28 269.706C1319.06 269.706 1317.26 267.901 1317.26 265.677Z" fill="url(#paint46_linear)"/>
<path d="M1321.98 130.12H1320.64V263.354H1321.98V130.12Z" fill="url(#paint47_linear)"/>
<path d="M1259.77 442.655C1259.77 440.431 1261.58 438.627 1263.8 438.627C1266.02 438.627 1267.83 440.431 1267.83 442.655C1267.83 444.879 1266.02 446.684 1263.8 446.684C1261.6 446.684 1259.77 444.879 1259.77 442.655Z" fill="url(#paint48_linear)"/>
<path d="M1264.49 133.308H1263.16V440.332H1264.49V133.308Z" fill="url(#paint49_linear)"/>
<path d="M1377.29 309.347C1377.29 307.123 1379.09 305.319 1381.32 305.319C1383.54 305.319 1385.34 307.123 1385.34 309.347C1385.34 311.571 1383.54 313.375 1381.32 313.375C1379.09 313.375 1377.29 311.571 1377.29 309.347Z" fill="url(#paint50_linear)"/>
<path d="M1382.01 0H1380.67V307.024H1382.01V0Z" fill="url(#paint51_linear)"/>
<path d="M1438.45 326.523C1438.45 324.299 1440.26 322.495 1442.48 322.495C1444.71 322.495 1446.51 324.299 1446.51 326.523C1446.51 328.748 1444.71 330.552 1442.48 330.552C1440.26 330.552 1438.45 328.748 1438.45 326.523Z" fill="url(#paint52_linear)"/>
<path d="M1191.61 510.248C1191.61 508.024 1193.41 506.22 1195.64 506.22C1197.86 506.22 1199.67 508.024 1199.67 510.248C1199.67 512.473 1197.86 514.277 1195.64 514.277C1193.44 514.277 1191.61 512.473 1191.61 510.248Z" fill="url(#paint53_linear)"/>
<path d="M1196.33 200.901H1195V507.925H1196.33V200.901Z" fill="url(#paint54_linear)"/>
<path d="M1138.89 428.197C1138.89 425.973 1140.7 424.169 1142.92 424.169C1145.15 424.169 1146.95 425.973 1146.95 428.197C1146.95 430.422 1145.15 432.226 1142.92 432.226C1140.7 432.251 1138.89 430.446 1138.89 428.197Z" fill="url(#paint55_linear)"/>
<path d="M1143.59 256.014H1142.26V425.874H1143.59V256.014Z" fill="url(#paint56_linear)"/>
<path d="M1208.34 243.089C1208.34 240.864 1210.14 239.06 1212.37 239.06C1214.59 239.06 1216.4 240.864 1216.4 243.089C1216.4 245.313 1214.59 247.117 1212.37 247.117C1210.14 247.142 1208.34 245.338 1208.34 243.089Z" fill="url(#paint57_linear)"/>
<path d="M1213.06 117.763H1211.73V240.79H1213.06V117.763Z" fill="url(#paint58_linear)"/>
<path d="M1427.98 460.202C1427.98 457.978 1429.78 456.174 1432 456.174C1434.23 456.174 1436.03 457.978 1436.03 460.202C1436.03 462.427 1434.23 464.231 1432 464.231C1429.78 464.231 1427.98 462.427 1427.98 460.202Z" fill="url(#paint59_linear)"/>
<path d="M1432.7 287.994H1431.36V457.855H1432.7V287.994Z" fill="url(#paint60_linear)"/>
<defs>
<linearGradient id="paint0_linear" x1="203.224" y1="315.457" x2="203.224" y2="245.437" gradientUnits="userSpaceOnUse">
<stop stop-color="#A4FFFF"/>
<stop offset="1" stop-color="#A4FFFF" stop-opacity="0"/>
</linearGradient>
<linearGradient id="paint1_linear" x1="203.227" y1="315.456" x2="203.227" y2="245.438" gradientUnits="userSpaceOnUse">
<stop stop-color="#A4FFFF"/>
<stop offset="1" stop-color="#A4FFFF" stop-opacity="0"/>
</linearGradient>
<linearGradient id="paint2_linear" x1="20.4699" y1="205.897" x2="20.4699" y2="135.856" gradientUnits="userSpaceOnUse">
<stop stop-color="#A4FFFF"/>
<stop offset="1" stop-color="#A4FFFF" stop-opacity="0"/>
</linearGradient>
<linearGradient id="paint3_linear" x1="20.4696" y1="205.905" x2="20.4696" y2="135.884" gradientUnits="userSpaceOnUse">
<stop stop-color="#A4FFFF"/>
<stop offset="1" stop-color="#A4FFFF" stop-opacity="0"/>
</linearGradient>
<linearGradient id="paint4_linear" x1="70.557" y1="111.226" x2="70.557" y2="41.2065" gradientUnits="userSpaceOnUse">
<stop stop-color="#A4FFFF"/>
<stop offset="1" stop-color="#A4FFFF" stop-opacity="0"/>
</linearGradient>
<linearGradient id="paint5_linear" x1="70.5568" y1="111.225" x2="70.5568" y2="41.2073" gradientUnits="userSpaceOnUse">
<stop stop-color="#A4FFFF"/>
<stop offset="1" stop-color="#A4FFFF" stop-opacity="0"/>
</linearGradient>
<linearGradient id="paint6_linear" x1="110.795" y1="131.676" x2="110.795" y2="61.6535" gradientUnits="userSpaceOnUse">
<stop stop-color="#A4FFFF"/>
<stop offset="1" stop-color="#A4FFFF" stop-opacity="0"/>
</linearGradient>
<linearGradient id="paint7_linear" x1="110.795" y1="131.676" x2="110.795" y2="61.6568" gradientUnits="userSpaceOnUse">
<stop stop-color="#A4FFFF"/>
<stop offset="1" stop-color="#A4FFFF" stop-opacity="0"/>
</linearGradient>
<linearGradient id="paint8_linear" x1="176.431" y1="361.411" x2="176.431" y2="291.41" gradientUnits="userSpaceOnUse">
<stop stop-color="#A4FFFF"/>
<stop offset="1" stop-color="#A4FFFF" stop-opacity="0"/>
</linearGradient>
<linearGradient id="paint9_linear" x1="176.432" y1="361.404" x2="176.432" y2="291.386" gradientUnits="userSpaceOnUse">
<stop stop-color="#A4FFFF"/>
<stop offset="1" stop-color="#A4FFFF" stop-opacity="0"/>
</linearGradient>
<linearGradient id="paint10_linear" x1="238.771" y1="102.282" x2="238.771" y2="32.2625" gradientUnits="userSpaceOnUse">
<stop stop-color="#A4FFFF"/>
<stop offset="1" stop-color="#A4FFFF" stop-opacity="0"/>
</linearGradient>
<linearGradient id="paint11_linear" x1="238.77" y1="102.281" x2="238.77" y2="32.263" gradientUnits="userSpaceOnUse">
<stop stop-color="#A4FFFF"/>
<stop offset="1" stop-color="#A4FFFF" stop-opacity="0"/>
</linearGradient>
<linearGradient id="paint12_linear" x1="127.593" y1="98.3314" x2="127.593" y2="28.3118" gradientUnits="userSpaceOnUse">
<stop stop-color="#A4FFFF"/>
<stop offset="1" stop-color="#A4FFFF" stop-opacity="0"/>
</linearGradient>
<linearGradient id="paint13_linear" x1="127.594" y1="108.507" x2="127.594" y2="73.4979" gradientUnits="userSpaceOnUse">
<stop stop-color="#A4FFFF"/>
<stop offset="1" stop-color="#A4FFFF" stop-opacity="0"/>
</linearGradient>
<linearGradient id="paint14_linear" x1="279.542" y1="321.981" x2="279.542" y2="251.961" gradientUnits="userSpaceOnUse">
<stop stop-color="#A4FFFF"/>
<stop offset="1" stop-color="#A4FFFF" stop-opacity="0"/>
</linearGradient>
<linearGradient id="paint15_linear" x1="279.542" y1="332.157" x2="279.542" y2="297.148" gradientUnits="userSpaceOnUse">
<stop stop-color="#A4FFFF"/>
<stop offset="1" stop-color="#A4FFFF" stop-opacity="0"/>
</linearGradient>
<linearGradient id="paint16_linear" x1="47.771" y1="86.2509" x2="47.771" y2="16.2097" gradientUnits="userSpaceOnUse">
<stop stop-color="#A4FFFF"/>
<stop offset="1" stop-color="#A4FFFF" stop-opacity="0"/>
</linearGradient>
<linearGradient id="paint17_linear" x1="47.7711" y1="96.4351" x2="47.7711" y2="61.4255" gradientUnits="userSpaceOnUse">
<stop stop-color="#A4FFFF"/>
<stop offset="1" stop-color="#A4FFFF" stop-opacity="0"/>
</linearGradient>
<linearGradient id="paint18_linear" x1="178.018" y1="24.6352" x2="178.018" y2="-45.3847" gradientUnits="userSpaceOnUse">
<stop stop-color="#A4FFFF"/>
<stop offset="1" stop-color="#A4FFFF" stop-opacity="0"/>
</linearGradient>
<linearGradient id="paint19_linear" x1="178.02" y1="34.8103" x2="178.02" y2="-0.195785" gradientUnits="userSpaceOnUse">
<stop stop-color="#A4FFFF"/>
<stop offset="1" stop-color="#A4FFFF" stop-opacity="0"/>
</linearGradient>
<linearGradient id="paint20_linear" x1="121.957" y1="350.188" x2="121.957" y2="280.168" gradientUnits="userSpaceOnUse">
<stop stop-color="#A4FFFF"/>
<stop offset="1" stop-color="#A4FFFF" stop-opacity="0"/>
</linearGradient>
<linearGradient id="paint21_linear" x1="121.956" y1="350.188" x2="121.956" y2="280.168" gradientUnits="userSpaceOnUse">
<stop stop-color="#A4FFFF"/>
<stop offset="1" stop-color="#A4FFFF" stop-opacity="0"/>
</linearGradient>
<linearGradient id="paint22_linear" x1="237.887" y1="302.964" x2="237.887" y2="232.923" gradientUnits="userSpaceOnUse">
<stop stop-color="#A4FFFF"/>
<stop offset="1" stop-color="#A4FFFF" stop-opacity="0"/>
</linearGradient>
<linearGradient id="paint23_linear" x1="237.888" y1="302.97" x2="237.888" y2="232.952" gradientUnits="userSpaceOnUse">
<stop stop-color="#A4FFFF"/>
<stop offset="1" stop-color="#A4FFFF" stop-opacity="0"/>
</linearGradient>
<linearGradient id="paint24_linear" x1="43.7345" y1="510.33" x2="43.7345" y2="385.631" gradientUnits="userSpaceOnUse">
<stop stop-color="#A4FFFF"/>
<stop offset="1" stop-color="#A4FFFF" stop-opacity="0"/>
</linearGradient>
<linearGradient id="paint25_linear" x1="43.7358" y1="479.128" x2="43.7358" y2="249.739" gradientUnits="userSpaceOnUse">
<stop stop-color="#A4FFFF"/>
<stop offset="1" stop-color="#A4FFFF" stop-opacity="0"/>
</linearGradient>
<linearGradient id="paint26_linear" x1="214.548" y1="334.534" x2="214.548" y2="209.835" gradientUnits="userSpaceOnUse">
<stop stop-color="#A4FFFF"/>
<stop offset="1" stop-color="#A4FFFF" stop-opacity="0"/>
</linearGradient>
<linearGradient id="paint27_linear" x1="214.55" y1="303.331" x2="214.55" y2="73.9432" gradientUnits="userSpaceOnUse">
<stop stop-color="#A4FFFF"/>
<stop offset="1" stop-color="#A4FFFF" stop-opacity="0"/>
</linearGradient>
<linearGradient id="paint28_linear" x1="106.045" y1="424.523" x2="106.045" y2="299.825" gradientUnits="userSpaceOnUse">
<stop stop-color="#A4FFFF"/>
<stop offset="1" stop-color="#A4FFFF" stop-opacity="0"/>
</linearGradient>
<linearGradient id="paint29_linear" x1="106.046" y1="393.319" x2="106.046" y2="163.932" gradientUnits="userSpaceOnUse">
<stop stop-color="#A4FFFF"/>
<stop offset="1" stop-color="#A4FFFF" stop-opacity="0"/>
</linearGradient>
<linearGradient id="paint30_linear" x1="191.33" y1="186.369" x2="191.33" y2="61.632" gradientUnits="userSpaceOnUse">
<stop stop-color="#A4FFFF"/>
<stop offset="1" stop-color="#A4FFFF" stop-opacity="0"/>
</linearGradient>
<linearGradient id="paint31_linear" x1="191.33" y1="185.724" x2="191.33" y2="58.8085" gradientUnits="userSpaceOnUse">
<stop stop-color="#A4FFFF"/>
<stop offset="1" stop-color="#A4FFFF" stop-opacity="0"/>
</linearGradient>
<linearGradient id="paint32_linear" x1="12.0552" y1="276.828" x2="12.0552" y2="152.167" gradientUnits="userSpaceOnUse">
<stop stop-color="#A4FFFF"/>
<stop offset="1" stop-color="#A4FFFF" stop-opacity="0"/>
</linearGradient>
<linearGradient id="paint33_linear" x1="12.0551" y1="276.159" x2="12.0551" y2="149.245" gradientUnits="userSpaceOnUse">
<stop stop-color="#A4FFFF"/>
<stop offset="1" stop-color="#A4FFFF" stop-opacity="0"/>
</linearGradient>
<linearGradient id="paint34_linear" x1="1334.8" y1="358.066" x2="1334.8" y2="288.068" gradientUnits="userSpaceOnUse">
<stop stop-color="#A4FFFF"/>
<stop offset="1" stop-color="#A4FFFF" stop-opacity="0"/>
</linearGradient>
<linearGradient id="paint35_linear" x1="1334.8" y1="364.217" x2="1334.8" y2="315.388" gradientUnits="userSpaceOnUse">
<stop stop-color="#A4FFFF"/>
<stop offset="1" stop-color="#A4FFFF" stop-opacity="0"/>
</linearGradient>
<linearGradient id="paint36_linear" x1="1230.88" y1="267.943" x2="1230.88" y2="197.923" gradientUnits="userSpaceOnUse">
<stop stop-color="#A4FFFF"/>
<stop offset="1" stop-color="#A4FFFF" stop-opacity="0"/>
</linearGradient>
<linearGradient id="paint37_linear" x1="1230.88" y1="251.561" x2="1230.88" y2="125.179" gradientUnits="userSpaceOnUse">
<stop stop-color="#A4FFFF"/>
<stop offset="1" stop-color="#A4FFFF" stop-opacity="0"/>
</linearGradient>
<linearGradient id="paint38_linear" x1="1184.96" y1="129.083" x2="1184.96" y2="59.063" gradientUnits="userSpaceOnUse">
<stop stop-color="#A4FFFF"/>
<stop offset="1" stop-color="#A4FFFF" stop-opacity="0"/>
</linearGradient>
<linearGradient id="paint39_linear" x1="1184.96" y1="129.083" x2="1184.96" y2="59.0636" gradientUnits="userSpaceOnUse">
<stop stop-color="#A4FFFF"/>
<stop offset="1" stop-color="#A4FFFF" stop-opacity="0"/>
</linearGradient>
<linearGradient id="paint40_linear" x1="1309.67" y1="199.207" x2="1309.67" y2="129.166" gradientUnits="userSpaceOnUse">
<stop stop-color="#A4FFFF"/>
<stop offset="1" stop-color="#A4FFFF" stop-opacity="0"/>
</linearGradient>
<linearGradient id="paint41_linear" x1="1309.67" y1="199.213" x2="1309.67" y2="129.194" gradientUnits="userSpaceOnUse">
<stop stop-color="#A4FFFF"/>
<stop offset="1" stop-color="#A4FFFF" stop-opacity="0"/>
</linearGradient>
<linearGradient id="paint42_linear" x1="1437.21" y1="206.234" x2="1437.21" y2="136.214" gradientUnits="userSpaceOnUse">
<stop stop-color="#A4FFFF"/>
<stop offset="1" stop-color="#A4FFFF" stop-opacity="0"/>
</linearGradient>
<linearGradient id="paint43_linear" x1="1437.21" y1="206.234" x2="1437.21" y2="136.215" gradientUnits="userSpaceOnUse">
<stop stop-color="#A4FFFF"/>
<stop offset="1" stop-color="#A4FFFF" stop-opacity="0"/>
</linearGradient>
<linearGradient id="paint44_linear" x1="1297.85" y1="256.788" x2="1297.85" y2="132.089" gradientUnits="userSpaceOnUse">
<stop stop-color="#A4FFFF"/>
<stop offset="1" stop-color="#A4FFFF" stop-opacity="0"/>
</linearGradient>
<linearGradient id="paint45_linear" x1="1297.85" y1="256.79" x2="1297.85" y2="132.092" gradientUnits="userSpaceOnUse">
<stop stop-color="#A4FFFF"/>
<stop offset="1" stop-color="#A4FFFF" stop-opacity="0"/>
</linearGradient>
<linearGradient id="paint46_linear" x1="1321.3" y1="226.18" x2="1321.3" y2="101.481" gradientUnits="userSpaceOnUse">
<stop stop-color="#A4FFFF"/>
<stop offset="1" stop-color="#A4FFFF" stop-opacity="0"/>
</linearGradient>
<linearGradient id="paint47_linear" x1="1321.3" y1="233.675" x2="1321.3" y2="134.127" gradientUnits="userSpaceOnUse">
<stop stop-color="#A4FFFF"/>
<stop offset="1" stop-color="#A4FFFF" stop-opacity="0"/>
</linearGradient>
<linearGradient id="paint48_linear" x1="1263.82" y1="403.166" x2="1263.82" y2="278.467" gradientUnits="userSpaceOnUse">
<stop stop-color="#A4FFFF"/>
<stop offset="1" stop-color="#A4FFFF" stop-opacity="0"/>
</linearGradient>
<linearGradient id="paint49_linear" x1="1263.82" y1="371.961" x2="1263.82" y2="142.573" gradientUnits="userSpaceOnUse">
<stop stop-color="#A4FFFF"/>
<stop offset="1" stop-color="#A4FFFF" stop-opacity="0"/>
</linearGradient>
<linearGradient id="paint50_linear" x1="1381.33" y1="269.841" x2="1381.33" y2="145.104" gradientUnits="userSpaceOnUse">
<stop stop-color="#A4FFFF"/>
<stop offset="1" stop-color="#A4FFFF" stop-opacity="0"/>
</linearGradient>
<linearGradient id="paint51_linear" x1="1381.33" y1="238.647" x2="1381.33" y2="9.25916" gradientUnits="userSpaceOnUse">
<stop stop-color="#A4FFFF"/>
<stop offset="1" stop-color="#A4FFFF" stop-opacity="0"/>
</linearGradient>
<linearGradient id="paint52_linear" x1="1442.49" y1="287.022" x2="1442.49" y2="162.288" gradientUnits="userSpaceOnUse">
<stop stop-color="#A4FFFF"/>
<stop offset="1" stop-color="#A4FFFF" stop-opacity="0"/>
</linearGradient>
<linearGradient id="paint53_linear" x1="1195.66" y1="470.758" x2="1195.66" y2="346.06" gradientUnits="userSpaceOnUse">
<stop stop-color="#A4FFFF"/>
<stop offset="1" stop-color="#A4FFFF" stop-opacity="0"/>
</linearGradient>
<linearGradient id="paint54_linear" x1="1195.66" y1="439.554" x2="1195.66" y2="210.168" gradientUnits="userSpaceOnUse">
<stop stop-color="#A4FFFF"/>
<stop offset="1" stop-color="#A4FFFF" stop-opacity="0"/>
</linearGradient>
<linearGradient id="paint55_linear" x1="1142.93" y1="388.719" x2="1142.93" y2="264.02" gradientUnits="userSpaceOnUse">
<stop stop-color="#A4FFFF"/>
<stop offset="1" stop-color="#A4FFFF" stop-opacity="0"/>
</linearGradient>
<linearGradient id="paint56_linear" x1="1142.93" y1="388.058" x2="1142.93" y2="261.146" gradientUnits="userSpaceOnUse">
<stop stop-color="#A4FFFF"/>
<stop offset="1" stop-color="#A4FFFF" stop-opacity="0"/>
</linearGradient>
<linearGradient id="paint57_linear" x1="1212.39" y1="203.61" x2="1212.39" y2="78.9117" gradientUnits="userSpaceOnUse">
<stop stop-color="#A4FFFF"/>
<stop offset="1" stop-color="#A4FFFF" stop-opacity="0"/>
</linearGradient>
<linearGradient id="paint58_linear" x1="1212.39" y1="213.385" x2="1212.39" y2="121.474" gradientUnits="userSpaceOnUse">
<stop stop-color="#A4FFFF"/>
<stop offset="1" stop-color="#A4FFFF" stop-opacity="0"/>
</linearGradient>
<linearGradient id="paint59_linear" x1="1432.02" y1="420.716" x2="1432.02" y2="296.055" gradientUnits="userSpaceOnUse">
<stop stop-color="#A4FFFF"/>
<stop offset="1" stop-color="#A4FFFF" stop-opacity="0"/>
</linearGradient>
<linearGradient id="paint60_linear" x1="1432.02" y1="420.044" x2="1432.02" y2="293.129" gradientUnits="userSpaceOnUse">
<stop stop-color="#A4FFFF"/>
<stop offset="1" stop-color="#A4FFFF" stop-opacity="0"/>
</linearGradient>
</defs>
</svg>
